<svg width="65" height="64" viewBox="0 0 65 64" fill="none" xmlns="http://www.w3.org/2000/svg">
<path d="M16.9375 10L16.625 11.625L15.625 17.375L15.1875 19.75H43.4375L42.8125 23.375H14.5625L14.25 25L13.25 30.75L12.8125 33.0625H41.0625L39.625 41.1875L29.1875 46L21 41.5L21.4375 39.0625L21.875 36.75H12.125L11.875 38.375L10.5 46L10.1875 47.5L11.5625 48.1875L27.1875 55.8125L28 56.1875L28.8125 55.875L47.125 48.1875L48.125 47.8125L48.375 46.6875L54.5 12.375L54.9375 10H16.9375ZM20.25 14H50.125L44.625 44.9375L28.0625 51.75L14.6875 45.25L15.5 40.75H17.0625L16.5625 43.625L17.8125 44.3125L28.125 50L29 50.5L29.9375 50.0625L42.25 44.375L43.1875 43.9375L43.375 42.875L45.4375 31.4375L45.875 29.0625H17.625L17.875 27.375H46.1875L46.4375 25.6875L47.8125 18.0625L48.25 15.75H20L20.25 14Z" fill="#9602D3"/>
</svg>
