<svg width="65" height="64" viewBox="0 0 65 64" fill="none" xmlns="http://www.w3.org/2000/svg">
<path d="M53.8161 8.324C53.6271 8.118 53.3591 8 53.0791 8H14.1051C13.2651 8 12.4591 8.355 11.8921 8.975C11.3251 9.595 11.0421 10.428 11.1171 11.264L14.4351 48.877C14.5441 50.106 15.4141 51.158 16.6001 51.497L31.6751 55.805C31.9451 55.881 32.2221 55.92 32.4991 55.92C32.7761 55.92 33.0541 55.881 33.3231 55.805L48.3981 51.497C49.5841 51.158 50.4541 50.105 50.5631 48.876L54.0741 9.088C54.1001 8.809 54.0061 8.531 53.8161 8.324ZM48.5721 48.699C48.5351 49.116 48.2521 49.459 47.8501 49.573L32.7751 53.881C32.5951 53.934 32.4041 53.934 32.2241 53.881L17.1491 49.573C16.7481 49.459 16.4641 49.116 16.4271 48.7L13.1091 11.088C13.0841 10.805 13.1751 10.534 13.3681 10.325C13.5601 10.115 13.8211 10 14.1051 10H51.9871L48.5721 48.699Z" fill="#03D500"/>
<path d="M16.4438 50.5996L32.173 54.9561C32.2802 54.985 32.3898 55 32.4994 55C32.609 55 32.7197 54.985 32.8258 54.9561L48.555 50.5996C49.029 50.468 49.3721 50.0662 49.415 49.5905L52.9956 10.2563C53.0242 9.93411 52.9134 9.61312 52.6871 9.37411C52.4619 9.13625 52.1427 9 51.8092 9H13.1908C12.8573 9 12.538 9.13625 12.3129 9.37411C12.0878 9.61312 11.9758 9.93296 12.0044 10.2563L15.5838 49.5905C15.6267 50.0662 15.9686 50.468 16.4438 50.5996ZM50.5084 11.3093L47.1137 48.5975L32.4994 52.6457L17.8839 48.5975L14.4915 11.3093H50.5084Z" fill="#03D500"/>
<path d="M42.161 23.541L42.406 20.541C42.43 20.249 42.2 20 41.908 20H23.083C22.794 20 22.566 20.244 22.584 20.532L23.282 31.532C23.298 31.795 23.517 32 23.781 32H36.697C36.986 32 37.215 32.245 37.196 32.533L36.927 36.594C36.914 36.795 36.781 36.969 36.59 37.034L32.608 38.394C32.503 38.43 32.39 38.43 32.285 38.394L28.3 37.033C28.11 36.968 27.978 36.797 27.963 36.597L27.804 34.463C27.785 34.202 27.567 34 27.305 34H23.956C23.666 34 23.437 34.246 23.457 34.535L23.831 39.854C23.845 40.057 23.981 40.23 24.173 40.294L32.288 42.965C32.39 42.998 32.499 42.998 32.601 42.965L40.714 40.295C40.908 40.231 41.044 40.055 41.057 39.851L41.764 28.531C41.782 28.243 41.554 28 41.265 28H27.904C27.644 28 27.427 27.8 27.406 27.541L27.161 24.541C27.138 24.249 27.367 24 27.66 24H41.663C41.923 24 42.14 23.8 42.161 23.541Z" fill="#03D500"/>
</svg>
