<svg width="65" height="64" viewBox="0 0 65 64" fill="none" xmlns="http://www.w3.org/2000/svg">
<path d="M53.816 8.324C53.627 8.118 53.359 8 53.079 8H14.105C13.265 8 12.459 8.355 11.892 8.975C11.325 9.595 11.042 10.428 11.117 11.264L14.435 48.877C14.544 50.106 15.414 51.158 16.6 51.497L31.675 55.805C31.945 55.881 32.222 55.92 32.499 55.92C32.776 55.92 33.054 55.881 33.323 55.805L48.398 51.497C49.584 51.158 50.454 50.105 50.563 48.876L54.074 9.088C54.1 8.809 54.006 8.531 53.816 8.324ZM48.572 48.699C48.535 49.116 48.252 49.459 47.85 49.573L32.775 53.881C32.595 53.934 32.404 53.934 32.224 53.881L17.149 49.573C16.748 49.459 16.464 49.116 16.427 48.7L13.109 11.088C13.084 10.805 13.175 10.534 13.368 10.325C13.56 10.115 13.821 10 14.105 10H51.987L48.572 48.699Z" fill="#9602D3"/>
<path d="M19.021 48.028L32.226 51.801C32.316 51.826 32.408 51.839 32.5 51.839C32.592 51.839 32.685 51.826 32.774 51.801L45.979 48.028C46.377 47.914 46.665 47.566 46.701 47.154L49.707 13.088C49.731 12.809 49.638 12.531 49.448 12.324C49.259 12.118 48.991 12 48.711 12H16.29C16.01 12 15.742 12.118 15.553 12.324C15.364 12.531 15.27 12.808 15.294 13.088L18.299 47.154C18.335 47.566 18.622 47.914 19.021 48.028ZM47.619 14L44.769 46.294L32.5 49.8L20.23 46.294L17.382 14H47.619Z" fill="#9602D3"/>
<path d="M42.161 23.541L42.406 20.541C42.43 20.249 42.2 20 41.908 20H23.083C22.794 20 22.566 20.244 22.584 20.532L23.282 31.532C23.298 31.795 23.517 32 23.781 32H36.697C36.986 32 37.215 32.245 37.196 32.533L36.927 36.594C36.914 36.795 36.781 36.969 36.59 37.034L32.608 38.394C32.503 38.43 32.39 38.43 32.285 38.394L28.3 37.033C28.11 36.968 27.978 36.797 27.963 36.597L27.804 34.463C27.785 34.202 27.567 34 27.305 34H23.956C23.666 34 23.437 34.246 23.457 34.535L23.831 39.854C23.845 40.057 23.981 40.23 24.173 40.294L32.288 42.965C32.39 42.998 32.499 42.998 32.601 42.965L40.714 40.295C40.908 40.231 41.044 40.055 41.057 39.851L41.764 28.531C41.782 28.243 41.554 28 41.265 28H27.904C27.644 28 27.427 27.8 27.406 27.541L27.161 24.541C27.138 24.249 27.367 24 27.66 24H41.663C41.923 24 42.14 23.8 42.161 23.541Z" fill="#9602D3"/>
</svg>
