<svg width="61" height="60" viewBox="0 0 61 60" fill="none" xmlns="http://www.w3.org/2000/svg">
<path d="M54.8288 2.79002C54.6008 2.54162 54.2804 2.40002 53.9432 2.40002H7.05679C6.71959 2.40002 6.39919 2.54162 6.17119 2.79002C5.94319 3.03842 5.83159 3.37202 5.86159 3.70682L10.0856 51.0192C10.13 51.5136 10.4744 51.93 10.952 52.0668L30.164 57.5544C30.2708 57.5844 30.3824 57.6 30.4928 57.6C30.6032 57.6 30.7148 57.5844 30.8216 57.5544L50.0504 52.0668C50.528 51.93 50.8724 51.5136 50.9168 51.0192L55.1384 3.70682C55.1684 3.37202 55.0556 3.03842 54.8288 2.79002ZM14.9 34.8048L23.3 37.1352V13.2H28.1V44.4L14.9 40.7388V34.8048ZM46.1648 26.4L44.9 41.1L32.9 44.4V38.8788L41 36.6528L41.3 32.1528L32.9 33.6V13.2H47.3L46.886 18H37.7V27.6L46.1648 26.4Z" fill="#9602D3"/>
</svg>
