<svg width="50" height="55" viewBox="0 0 50 55" fill="none" xmlns="http://www.w3.org/2000/svg">
<path d="M48.8387 0.782018C48.6153 0.53864 48.3014 0.399902 47.971 0.399902H2.03243C1.70204 0.399902 1.38812 0.53864 1.16473 0.782018C0.94134 1.0254 0.831996 1.35225 0.86139 1.68028L5.00001 48.0362C5.04351 48.5206 5.38095 48.9286 5.84889 49.0626L24.6725 54.4393C24.7771 54.4687 24.8865 54.484 24.9947 54.484C25.1028 54.484 25.2122 54.4687 25.3168 54.4393L44.1569 49.0626C44.6248 48.9286 44.9623 48.5206 45.0058 48.0362L49.142 1.68028C49.1714 1.35225 49.0609 1.0254 48.8387 0.782018ZM9.71708 32.1496L17.9473 34.4329V10.9816H22.6502V41.5508L9.71708 37.9636V32.1496ZM40.3498 23.9147L39.1106 38.3175L27.3532 41.5508V36.1412L35.2894 33.9602L35.5834 29.5512L27.3532 30.9691V10.9816H41.4621L41.0565 15.6845H32.0562V25.0904L40.3498 23.9147Z" fill="#03D500"/>
</svg>
