<svg width="65" height="66" viewBox="0 0 65 66" fill="none" xmlns="http://www.w3.org/2000/svg">
<path d="M32.5 40.1094C35.8655 40.1094 38.5938 37.3811 38.5938 34.0156C38.5938 30.6501 35.8655 27.9219 32.5 27.9219C29.1345 27.9219 26.4062 30.6501 26.4062 34.0156C26.4062 37.3811 29.1345 40.1094 32.5 40.1094Z" fill="#03D500"/>
<path d="M32.5 41.125C28.5807 41.125 25.3906 37.9349 25.3906 34.0156C25.3906 30.0963 28.5807 26.9062 32.5 26.9062C36.4193 26.9062 39.6094 30.0963 39.6094 34.0156C39.6094 37.9349 36.4193 41.125 32.5 41.125ZM32.5 28.9375C29.6999 28.9375 27.4219 31.2155 27.4219 34.0156C27.4219 36.8157 29.6999 39.0938 32.5 39.0938C35.3001 39.0938 37.5781 36.8157 37.5781 34.0156C37.5781 31.2155 35.3001 28.9375 32.5 28.9375Z" fill="#03D500"/>
<path d="M32.5 47.2188C15.4152 47.2188 2.03125 41.4195 2.03125 34.0156C2.03125 26.6117 15.4152 20.8125 32.5 20.8125C49.5848 20.8125 62.9688 26.6117 62.9688 34.0156C62.9688 41.4195 49.5848 47.2188 32.5 47.2188ZM32.5 22.8438C17.0848 22.8438 4.0625 27.9595 4.0625 34.0156C4.0625 40.0718 17.0848 45.1875 32.5 45.1875C47.9152 45.1875 60.9375 40.0718 60.9375 34.0156C60.9375 27.9595 47.9152 22.8438 32.5 22.8438Z" fill="#03D500"/>
<path d="M20.6334 61.2619C19.3923 61.2619 18.262 60.9775 17.2656 60.4017C14.0674 58.5553 12.7715 54.0124 13.6165 47.6088C14.4219 41.511 17.0666 34.3397 21.0651 27.4131C25.0646 20.4876 29.9538 14.6101 34.8319 10.8635C39.9557 6.93101 44.5382 5.78335 47.7344 7.62976C50.9326 9.47617 52.2285 14.019 51.3835 20.4226C50.5781 26.5194 47.9324 33.6917 43.9349 40.6173C39.9354 47.5428 35.0462 53.4203 30.1681 57.1669C26.6419 59.8736 23.3726 61.2619 20.6334 61.2619ZM44.3666 8.80687C42.0977 8.80687 39.2082 10.0652 36.0689 12.4763C31.397 16.0635 26.6947 21.7287 22.8252 28.4298C18.9566 35.1309 16.4023 42.0351 15.6305 47.8749C14.9104 53.3299 15.8773 57.2532 18.2813 58.6426C20.6852 60.032 24.5649 58.9067 28.9311 55.5551C33.603 51.9679 38.3053 46.3028 42.1749 39.6017C46.0434 32.9006 48.5977 25.9963 49.3695 20.1565C50.0896 14.7015 49.1228 10.7782 46.7188 9.38882C46.0444 8.99882 45.2522 8.80687 44.3666 8.80687Z" fill="#03D500"/>
<path d="M44.3666 61.2617C41.6285 61.2617 38.3581 59.8733 34.8319 57.1667C29.9538 53.4211 25.0646 47.5426 21.0651 40.6171C17.0666 33.6916 14.4219 26.5192 13.6165 20.4214C12.7715 14.0189 14.0674 9.47602 17.2656 7.62961C20.4648 5.78524 25.0463 6.9329 30.1681 10.8654C35.0462 14.611 39.9354 20.4895 43.9349 27.415C47.9335 34.3405 50.5781 41.5129 51.3835 47.6107C52.2285 54.0122 50.9326 58.555 47.7344 60.4014C46.7381 60.9773 45.6056 61.2617 44.3666 61.2617ZM20.6334 8.80672C19.7468 8.80672 18.9566 8.99867 18.2813 9.38867C15.8773 10.7771 14.9104 14.7004 15.6305 20.1563C16.4023 25.9962 18.9566 32.9014 22.8252 39.6015C26.6947 46.3026 31.397 51.9677 36.0689 55.5549C40.4341 58.9064 44.3148 60.0307 46.7188 58.6424C49.1228 57.254 50.0896 53.3307 49.3695 47.8747C48.5977 42.0349 46.0434 35.1297 42.1749 28.4296C38.3053 21.7285 33.603 16.0634 28.9311 12.4762C25.7928 10.0661 22.9034 8.80672 20.6334 8.80672Z" fill="#03D500"/>
<path d="M10.6265 48.206C10.5818 48.206 10.5371 48.2029 10.4914 48.1968L8.47847 47.9287C7.92191 47.8546 7.53089 47.3447 7.60605 46.7882C7.67917 46.2316 8.18699 45.8406 8.7466 45.9157L10.7595 46.1839C11.3161 46.258 11.7071 46.7679 11.632 47.3244C11.5649 47.8343 11.1282 48.206 10.6265 48.206Z" fill="#03D500"/>
<path d="M8.32207 53.1957C7.77769 53.1957 7.32675 52.763 7.30847 52.2135C7.28918 51.6529 7.72793 51.1837 8.28957 51.1654L10.3188 51.0974C10.8784 51.0598 11.3496 51.5168 11.3679 52.0785C11.3872 52.6391 10.9485 53.1083 10.3868 53.1266L8.3566 53.1946C8.34644 53.1957 8.33426 53.1957 8.32207 53.1957Z" fill="#03D500"/>
<path d="M9.14979 58.4851C8.71409 58.4851 8.3119 58.2038 8.17885 57.7661C8.01534 57.2298 8.31698 56.6621 8.85323 56.4986L10.7961 55.9055C11.3344 55.7369 11.9011 56.0436 12.0636 56.5798C12.2281 57.1161 11.9255 57.6838 11.3892 57.8473L9.44635 58.4405C9.34682 58.4709 9.24729 58.4851 9.14979 58.4851Z" fill="#03D500"/>
<path d="M11.7325 63.3184C11.4471 63.3184 11.1627 63.1986 10.9617 62.964C10.597 62.5384 10.6448 61.8965 11.0703 61.5319L12.612 60.2086C13.0366 59.845 13.6774 59.8917 14.0441 60.3172C14.4087 60.7428 14.3609 61.3847 13.9354 61.7493L12.3937 63.0726C12.2027 63.2372 11.9671 63.3184 11.7325 63.3184Z" fill="#03D500"/>
<path d="M56.6424 19.5104C56.6221 19.5104 56.6028 19.5094 56.5825 19.5084L54.5553 19.3916C53.9947 19.3601 53.5671 18.8797 53.6006 18.3191C53.6321 17.7595 54.1155 17.3329 54.6731 17.3644L56.7003 17.4812C57.2609 17.5127 57.6885 17.9931 57.655 18.5537C57.6235 19.093 57.1756 19.5104 56.6424 19.5104Z" fill="#03D500"/>
<path d="M54.4285 14.5125C53.9338 14.5125 53.5012 14.152 53.425 13.6472C53.3417 13.0927 53.7246 12.5747 54.2792 12.4915L56.2881 12.1898C56.8446 12.1167 57.3606 12.4904 57.4439 13.044C57.5271 13.5985 57.1442 14.1165 56.5897 14.1997L54.5808 14.5014C54.529 14.5085 54.4782 14.5125 54.4285 14.5125Z" fill="#03D500"/>
<path d="M53.031 9.98197C52.6654 9.98197 52.3119 9.78494 52.1301 9.4376C51.8691 8.94197 52.0621 8.32752 52.5587 8.0665L54.3574 7.12299C54.853 6.86299 55.4675 7.05392 55.7285 7.55158C55.9895 8.0472 55.7965 8.66166 55.2999 8.92267L53.5012 9.86619C53.3509 9.94439 53.1894 9.98197 53.031 9.98197Z" fill="#03D500"/>
<path d="M50.0358 6.51157C49.8327 6.51157 49.6275 6.45063 49.4488 6.32368C48.9918 5.99868 48.8841 5.36493 49.2091 4.90689L50.3852 3.25041C50.7102 2.79338 51.3429 2.6847 51.802 3.01072C52.259 3.33572 52.3667 3.96947 52.0417 4.42751L50.8656 6.08399C50.6665 6.36227 50.3537 6.51157 50.0358 6.51157Z" fill="#03D500"/>
</svg>
