<svg width="65" height="66" viewBox="0 0 65 66" fill="none" xmlns="http://www.w3.org/2000/svg">
<path d="M32.5 40.1094C35.8655 40.1094 38.5938 37.3811 38.5938 34.0156C38.5938 30.6501 35.8655 27.9219 32.5 27.9219C29.1345 27.9219 26.4062 30.6501 26.4062 34.0156C26.4062 37.3811 29.1345 40.1094 32.5 40.1094Z" fill="#9602D3"/>
<path d="M32.5 41.125C28.5807 41.125 25.3906 37.9349 25.3906 34.0156C25.3906 30.0963 28.5807 26.9062 32.5 26.9062C36.4193 26.9062 39.6094 30.0963 39.6094 34.0156C39.6094 37.9349 36.4193 41.125 32.5 41.125ZM32.5 28.9375C29.6999 28.9375 27.4219 31.2155 27.4219 34.0156C27.4219 36.8157 29.6999 39.0938 32.5 39.0938C35.3001 39.0938 37.5781 36.8157 37.5781 34.0156C37.5781 31.2155 35.3001 28.9375 32.5 28.9375Z" fill="#9602D3"/>
<path d="M32.5 47.2188C15.4152 47.2188 2.03125 41.4195 2.03125 34.0156C2.03125 26.6117 15.4152 20.8125 32.5 20.8125C49.5848 20.8125 62.9688 26.6117 62.9688 34.0156C62.9688 41.4195 49.5848 47.2188 32.5 47.2188ZM32.5 22.8438C17.0848 22.8438 4.0625 27.9595 4.0625 34.0156C4.0625 40.0718 17.0848 45.1875 32.5 45.1875C47.9152 45.1875 60.9375 40.0718 60.9375 34.0156C60.9375 27.9595 47.9152 22.8438 32.5 22.8438Z" fill="#9602D3"/>
<path d="M20.6334 61.2618C19.3923 61.2618 18.262 60.9774 17.2656 60.4016C14.0674 58.5552 12.7715 54.0123 13.6165 47.6087C14.4219 41.5109 17.0666 34.3396 21.0651 27.413C25.0646 20.4875 29.9538 14.61 34.8319 10.8634C39.9557 6.93089 44.5382 5.78323 47.7344 7.62964C50.9326 9.47605 52.2285 14.0189 51.3835 20.4225C50.5781 26.5193 47.9324 33.6916 43.9349 40.6172C39.9354 47.5427 35.0462 53.4202 30.1681 57.1668C26.6419 59.8735 23.3726 61.2618 20.6334 61.2618ZM44.3666 8.80675C42.0977 8.80675 39.2082 10.0651 36.0689 12.4762C31.397 16.0634 26.6947 21.7286 22.8252 28.4297C18.9566 35.1308 16.4023 42.035 15.6305 47.8748C14.9104 53.3298 15.8773 57.2531 18.2813 58.6425C20.6852 60.0319 24.5649 58.9066 28.9311 55.555C33.603 51.9678 38.3053 46.3027 42.1749 39.6016C46.0434 32.9005 48.5977 25.9962 49.3695 20.1564C50.0896 14.7014 49.1228 10.7781 46.7188 9.3887C46.0444 8.9987 45.2522 8.80675 44.3666 8.80675Z" fill="#9602D3"/>
<path d="M44.3666 61.2618C41.6285 61.2618 38.3581 59.8734 34.8319 57.1668C29.9538 53.4212 25.0646 47.5427 21.0651 40.6172C17.0666 33.6917 14.4219 26.5193 13.6165 20.4215C12.7715 14.019 14.0674 9.47614 17.2656 7.62973C20.4648 5.78536 25.0463 6.93302 30.1681 10.8655C35.0462 14.6111 39.9354 20.4896 43.9349 27.4151C47.9335 34.3406 50.5781 41.513 51.3835 47.6108C52.2285 54.0123 50.9326 58.5551 47.7344 60.4015C46.7381 60.9774 45.6056 61.2618 44.3666 61.2618ZM20.6334 8.80684C19.7468 8.80684 18.9566 8.99879 18.2813 9.38879C15.8773 10.7772 14.9104 14.7005 15.6305 20.1564C16.4023 25.9963 18.9566 32.9015 22.8252 39.6016C26.6947 46.3027 31.397 51.9678 36.0689 55.555C40.4341 58.9065 44.3148 60.0308 46.7188 58.6425C49.1228 57.2541 50.0896 53.3308 49.3695 47.8748C48.5977 42.035 46.0434 35.1298 42.1749 28.4297C38.3053 21.7286 33.603 16.0635 28.9311 12.4763C25.7928 10.0662 22.9034 8.80684 20.6334 8.80684Z" fill="#9602D3"/>
<path d="M10.6265 48.206C10.5818 48.206 10.5371 48.2029 10.4914 48.1968L8.47843 47.9287C7.92187 47.8546 7.53085 47.3447 7.60601 46.7882C7.67913 46.2316 8.18695 45.8406 8.74656 45.9157L10.7595 46.1839C11.3161 46.258 11.7071 46.7679 11.632 47.3244C11.5649 47.8343 11.1282 48.206 10.6265 48.206Z" fill="#9602D3"/>
<path d="M8.32204 53.1957C7.77766 53.1957 7.32672 52.763 7.30844 52.2135C7.28915 51.6529 7.7279 51.1837 8.28954 51.1654L10.3188 51.0974C10.8784 51.0598 11.3496 51.5168 11.3679 52.0785C11.3872 52.6391 10.9485 53.1083 10.3868 53.1266L8.35657 53.1946C8.34641 53.1957 8.33423 53.1957 8.32204 53.1957Z" fill="#9602D3"/>
<path d="M9.14979 58.4851C8.71409 58.4851 8.3119 58.2038 8.17885 57.7661C8.01534 57.2298 8.31698 56.6621 8.85323 56.4986L10.7961 55.9055C11.3344 55.7369 11.9011 56.0436 12.0636 56.5798C12.2281 57.1161 11.9255 57.6838 11.3892 57.8473L9.44635 58.4405C9.34682 58.4709 9.24729 58.4851 9.14979 58.4851Z" fill="#9602D3"/>
<path d="M11.7325 63.3184C11.4471 63.3184 11.1627 63.1986 10.9617 62.964C10.597 62.5384 10.6448 61.8965 11.0703 61.5319L12.612 60.2086C13.0366 59.845 13.6774 59.8917 14.0441 60.3172C14.4087 60.7428 14.3609 61.3847 13.9354 61.7493L12.3937 63.0726C12.2027 63.2372 11.9671 63.3184 11.7325 63.3184Z" fill="#9602D3"/>
<path d="M56.6424 19.5104C56.6221 19.5104 56.6028 19.5094 56.5825 19.5084L54.5553 19.3916C53.9947 19.3601 53.5671 18.8797 53.6006 18.3191C53.6321 17.7595 54.1155 17.3329 54.6731 17.3644L56.7003 17.4812C57.2609 17.5127 57.6885 17.9931 57.655 18.5537C57.6235 19.093 57.1756 19.5104 56.6424 19.5104Z" fill="#9602D3"/>
<path d="M54.4284 14.5126C53.9337 14.5126 53.5011 14.1521 53.4249 13.6473C53.3416 13.0928 53.7245 12.5748 54.2791 12.4916L56.288 12.1899C56.8445 12.1168 57.3605 12.4905 57.4438 13.0441C57.527 13.5986 57.1441 14.1166 56.5896 14.1998L54.5807 14.5015C54.5289 14.5086 54.4781 14.5126 54.4284 14.5126Z" fill="#9602D3"/>
<path d="M53.0309 9.98185C52.6653 9.98185 52.3118 9.78482 52.13 9.43748C51.869 8.94185 52.062 8.3274 52.5586 8.06638L54.3573 7.12287C54.8529 6.86287 55.4674 7.0538 55.7284 7.55146C55.9894 8.04708 55.7964 8.66154 55.2998 8.92255L53.5011 9.86607C53.3508 9.94427 53.1893 9.98185 53.0309 9.98185Z" fill="#9602D3"/>
<path d="M50.0358 6.51145C49.8327 6.51145 49.6275 6.45051 49.4488 6.32356C48.9918 5.99856 48.8841 5.36481 49.2091 4.90677L50.3852 3.25029C50.7102 2.79326 51.3429 2.68458 51.802 3.0106C52.259 3.3356 52.3667 3.96935 52.0417 4.42739L50.8656 6.08387C50.6665 6.36215 50.3537 6.51145 50.0358 6.51145Z" fill="#9602D3"/>
</svg>
