<svg width="61" height="60" viewBox="0 0 61 60" fill="none" xmlns="http://www.w3.org/2000/svg">
<path d="M54.5 4.80005H6.49999C5.83639 4.80005 5.29999 5.33765 5.29999 6.00005V54C5.29999 54.6625 5.83639 55.2001 6.49999 55.2001H54.5C55.1636 55.2001 55.7 54.6625 55.7 54V6.00005C55.7 5.33765 55.1636 4.80005 54.5 4.80005ZM35.3 31.734H29.3V50.4001H24.5V31.734H18.5V27.6H35.3V31.734ZM36.6452 49.3344V44.3448C36.6452 44.3448 39.3704 46.3993 42.6404 46.3993C45.9104 46.3993 45.7844 44.2608 45.7844 43.968C45.7844 40.8648 36.5192 40.8649 36.5192 33.9901C36.5192 24.6409 50.0192 28.3296 50.0192 28.3296L49.8512 32.7745C49.8512 32.7745 47.5868 31.2649 45.0296 31.2649C42.4724 31.2649 41.5496 32.4804 41.5496 33.7801C41.5496 37.134 50.8988 36.7992 50.8988 43.5493C50.9 53.9461 36.6452 49.3344 36.6452 49.3344Z" fill="#9602D3"/>
</svg>
