<svg width="61" height="60" viewBox="0 0 61 60" fill="none" xmlns="http://www.w3.org/2000/svg">
<path d="M54.5001 4.80005H6.50005C5.83645 4.80005 5.30005 5.33765 5.30005 6.00005V54C5.30005 54.6625 5.83645 55.2001 6.50005 55.2001H54.5001C55.1637 55.2001 55.7001 54.6625 55.7001 54V6.00005C55.7001 5.33765 55.1637 4.80005 54.5001 4.80005ZM35.3001 31.734H29.3001V50.4001H24.5001V31.734H18.5001V27.6H35.3001V31.734ZM36.6453 49.3344V44.3448C36.6453 44.3448 39.3705 46.3993 42.6405 46.3993C45.9105 46.3993 45.7845 44.2608 45.7845 43.968C45.7845 40.8648 36.5193 40.8649 36.5193 33.9901C36.5193 24.6409 50.0193 28.3296 50.0193 28.3296L49.8513 32.7745C49.8513 32.7745 47.5869 31.2649 45.0297 31.2649C42.4725 31.2649 41.5497 32.4804 41.5497 33.7801C41.5497 37.134 50.8989 36.7992 50.8989 43.5493C50.9001 53.9461 36.6453 49.3344 36.6453 49.3344Z" fill="#03D500"/>
</svg>
