<svg width="22" height="18" viewBox="0 0 22 18" fill="none" xmlns="http://www.w3.org/2000/svg">
<g clip-path="url(#clip0_417_5)">
<path fill-rule="evenodd" clip-rule="evenodd" d="M1.48958 0H20.5104C21.3304 0 22 0.669597 22 1.48958V15.6102C22 16.4284 21.3304 17.0998 20.5104 17.0998H1.48958C0.669596 17.0998 0 16.4302 0 15.6102V1.48958C0 0.669597 0.669596 0 1.48958 0ZM2.25586 4.82503H19.5812V12.1799H2.25586V4.82503ZM5.76676 6.92334H6.8374V9.15056C6.8374 9.37077 6.80518 9.58025 6.74072 9.77539C6.67627 9.97234 6.57601 10.1442 6.43994 10.291C6.30387 10.4378 6.16064 10.5417 6.01025 10.6008C5.80257 10.6831 5.55192 10.7261 5.26009 10.7261C5.0918 10.7261 4.90739 10.7135 4.70687 10.6885C4.50814 10.6634 4.33984 10.6133 4.20557 10.5363C4.07129 10.4611 3.94954 10.3537 3.83854 10.214C3.72754 10.0744 3.65055 9.93116 3.60938 9.78256C3.54313 9.54444 3.50911 9.33497 3.50911 9.15056V6.92334H4.57975V9.20427C4.57975 9.40837 4.63167 9.56771 4.7373 9.68051C4.84294 9.79509 4.98796 9.85238 5.17415 9.85238C5.35677 9.85238 5.50179 9.79509 5.60742 9.6823C5.71126 9.5695 5.76497 9.41016 5.76497 9.20248V6.92334H5.76676ZM7.58936 6.92334H8.66537V10.6634H7.58936V6.92334ZM9.95264 6.86068H10.4396L9.56413 10.7261H9.07715L9.95264 6.86068ZM13.0374 6.92334H14.1081V9.15056C14.1081 9.37077 14.0758 9.58025 14.0114 9.77539C13.9469 9.97234 13.8467 10.1442 13.7106 10.291C13.5745 10.4378 13.4313 10.5417 13.2809 10.6008C13.0732 10.6831 12.8226 10.7261 12.5308 10.7261C12.3625 10.7261 12.1781 10.7135 11.9775 10.6885C11.7788 10.6634 11.6105 10.6133 11.4762 10.5363C11.342 10.4611 11.2202 10.3537 11.1092 10.214C10.9982 10.0744 10.9212 9.93116 10.88 9.78256C10.8138 9.54444 10.7816 9.33497 10.7816 9.15056V6.92334H11.8522V9.20427C11.8522 9.40837 11.9041 9.56771 12.0098 9.68051C12.1154 9.79509 12.2604 9.85238 12.4466 9.85238C12.6292 9.85238 12.7743 9.79509 12.8799 9.6823C12.9837 9.5695 13.0374 9.41016 13.0374 9.20248V6.92334ZM14.5789 6.92334H15.7624L16.3765 8.07455L16.9727 6.92334H18.14L17.0622 8.73519L18.242 10.6634H17.0353L16.355 9.46208L15.6693 10.6634H14.4715L15.6675 8.71371L14.5789 6.92334ZM11.9722 14.9818C11.6535 14.9818 11.3957 14.7007 11.3957 14.3552C11.3957 14.0078 11.6535 13.7285 11.9722 13.7285H19.071C19.3896 13.7285 19.6475 14.0096 19.6475 14.3552C19.6475 14.7025 19.3896 14.9818 19.071 14.9818H11.9722ZM2.67839 14.9818C2.36328 14.9818 2.10726 14.7007 2.10726 14.3552C2.10726 14.0078 2.36328 13.7285 2.67839 13.7285H9.25977C9.57487 13.7285 9.83089 14.0096 9.83089 14.3552C9.83089 14.7025 9.57487 14.9818 9.25977 14.9818H2.67839ZM21.1209 3.59863H0.947103V15.7552C0.947103 15.8698 0.991862 15.9701 1.06706 16.047C1.14404 16.1222 1.2443 16.167 1.35889 16.167H20.702C20.8166 16.167 20.9168 16.1222 20.9938 16.047C21.0708 15.9701 21.1138 15.8698 21.1138 15.7552V3.59863H21.1209ZM19.0924 1.10287C19.4989 1.10287 19.8283 1.43229 19.8283 1.83871C19.8283 2.24512 19.4989 2.57455 19.0924 2.57455C18.686 2.57455 18.3566 2.24512 18.3566 1.83871C18.3584 1.43229 18.6878 1.10287 19.0924 1.10287ZM14.1081 1.10287C14.5145 1.10287 14.8439 1.43229 14.8439 1.83871C14.8439 2.24512 14.5145 2.57455 14.1081 2.57455C13.7017 2.57455 13.3722 2.24512 13.3722 1.83871C13.3722 1.43229 13.7017 1.10287 14.1081 1.10287ZM16.6003 1.10287C17.0067 1.10287 17.3361 1.43229 17.3361 1.83871C17.3361 2.24512 17.0067 2.57455 16.6003 2.57455C16.1938 2.57455 15.8644 2.24512 15.8644 1.83871C15.8644 1.43229 16.1938 1.10287 16.6003 1.10287Z" fill="#03D500"/>
</g>
<defs>
<clipPath id="clip0_417_5">
<rect width="22" height="17.0998" fill="white"/>
</clipPath>
</defs>
</svg>
